<svg width="181" height="35" viewBox="0 0 1341 261" fill="none" xmlns="http://www.w3.org/2000/svg">
  <g clip-path="url(#clip0_1838_1471)">
    <path d="M1287.7 119.034H1277.19V169H1248.05V30.0625H1295.64C1309.53 30.0625 1319.76 34.2644 1326.61 41.2981C1333.46 48.3317 1336.84 58.2885 1336.84 69.9807V78.3846C1336.84 86.7884 1335.11 93.1826 1331.91 98.024C1328.71 102.865 1324.14 106.337 1318.39 108.894C1322.87 111.269 1325.97 114.284 1327.98 118.303C1329.99 122.322 1331 127.529 1332 134.014L1334.28 148.538C1334.74 152.466 1335.75 156.486 1336.84 160.139C1337.94 163.793 1339.22 166.899 1340.4 169H1310.35C1310.08 168.635 1309.8 167.904 1309.35 166.534C1308.52 163.976 1307.43 160.413 1306.42 156.394C1305.97 154.385 1305.51 152.375 1305.24 150.457L1302.59 135.202C1300.67 124.149 1294.37 118.668 1287.7 118.942V119.034ZM1307.7 76.649V72.2644C1307.7 66.875 1306.42 62.3077 1303.68 59.0192C1300.94 55.7308 1296.74 53.7211 1290.89 53.7211H1277.28V95.1009H1291.08C1297.01 95.1009 1301.31 93.1826 1303.96 89.8942C1306.51 86.6971 1307.7 82.1298 1307.7 76.649Z" fill="#06593A"/>
    <path d="M1232.22 169H1153.03V30.0625H1232.22V53.9038H1182.17V86.6971H1223V110.538H1182.17V145.341H1232.22V169Z" fill="#06593A"/>
    <path d="M1081.2 169L1070.88 95.7404L1069.69 80.3029L1068.6 95.7404L1058.37 169H1018.08L996.709 30.0626H1026.58L1038.18 125.611L1039.46 143.058H1040.46L1041.56 125.611L1054.9 30.0626H1084.58L1097.92 125.793L1098.93 142.966H1099.93L1101.39 125.519L1113.08 29.9712H1142.77L1121.49 169H1081.2Z" fill="#06593A"/>
    <path d="M896.933 115.38V84.4136C896.933 68.6107 899.765 54.178 907.073 43.7646C914.381 33.5338 926.164 27.1396 944.342 27.1396C962.52 27.1396 974.395 33.5338 981.703 43.7646C989.01 54.178 991.933 68.6107 991.933 84.4136V114.649C991.933 130.635 989.01 144.976 981.703 155.207C974.395 165.529 962.429 171.923 944.433 171.923C926.256 171.923 914.381 165.529 907.073 155.298C899.765 145.159 896.933 131.091 896.933 115.471V115.38ZM944.433 148.173C951.01 148.173 955.578 145.615 958.501 140.865C961.332 136.207 962.52 129.356 962.52 120.861V78.6588C962.52 70.3463 961.332 63.404 958.501 58.5626C955.578 53.7213 951.102 50.9809 944.525 50.9809C937.765 50.9809 933.198 53.7213 930.366 58.5626C927.534 63.404 926.347 70.3463 926.347 78.6588V121.043C926.347 129.721 927.534 136.298 930.366 140.957C933.198 145.615 937.765 148.173 944.525 148.173H944.433Z" fill="#06593A"/>
    <path d="M887.408 125.976V134.014C887.408 146.163 883.206 154.933 876.081 160.687C868.956 166.442 858.817 169.091 847.124 169.091H800.081V30.0625H850.23C859.273 30.0625 867.677 32.9856 873.615 38.1923C879.643 43.399 883.297 51.1635 883.297 60.7548V68.9759C883.297 75.8269 882.11 81.673 879.461 86.2403C876.812 90.8076 872.793 94.0961 867.586 95.1923C872.701 96.2884 877.634 99.3942 881.288 104.51C884.942 109.716 887.317 116.933 887.317 125.976H887.408ZM854.706 69.9807V65.3221C854.706 56.4615 849.865 52.0769 841.826 52.0769H828.581V85.0528H842.648C850.413 85.0528 854.706 79.8461 854.706 69.8894V69.9807ZM858.086 127.803V123.418C858.086 112.822 852.696 107.433 844.384 107.433H828.581V145.159H842.74C847.124 145.159 850.961 144.428 853.701 141.87C856.442 139.312 858.086 134.928 858.086 127.894V127.803Z" fill="#06593A"/>
    <path d="M786.445 130.817C786.445 144.976 782.426 155.207 774.844 161.966C767.262 168.726 756.209 172.014 742.69 172.014C727.709 172.014 716.109 166.716 708.253 158.13C700.397 149.543 696.195 137.851 696.195 124.697H724.512C724.786 129.447 725.152 135.293 727.527 139.952C729.902 144.702 734.286 148.173 742.782 148.173C748.262 148.173 751.916 146.529 754.017 143.606C756.209 140.774 757.032 136.846 757.032 132.37C757.032 127.894 756.483 124.149 754.657 121.135C752.738 118.12 749.541 115.837 744.426 113.736L723.416 105.24C713.916 101.313 707.339 96.4712 703.229 90.1684C699.118 83.9568 697.291 76.2838 697.291 66.7838C697.291 55.1828 700.123 45.2261 707.065 38.1925C713.916 31.2502 724.695 27.1396 740.498 27.1396C756.94 27.1396 768.084 32.3463 775.118 40.8415C782.152 49.3367 784.983 61.2117 784.983 74.4568H756.666C756.392 67.9713 755.57 62.1251 753.286 57.8319C751.003 53.5386 747.075 50.9809 740.863 50.9809C734.652 50.9809 731.089 52.8992 728.988 55.7309C726.887 58.654 726.431 62.4905 726.431 66.4184C726.431 75.0049 729.262 80.0289 737.575 83.2261L758.584 91.7212C767.445 95.3751 774.479 99.7597 779.229 105.88C783.887 112.183 786.354 120.13 786.354 130.817H786.445Z" fill="#06593A"/>
    <path d="M683.107 169H655.977L656.799 84.9615L657.987 69.6154L636.064 148.447H607.929L585.823 69.25L587.102 85.0528L588.016 169H560.886V30.0625H597.15L620.352 111.817L621.996 121.5H622.088L623.823 111.726L647.025 30.0625H683.198L683.107 169Z" fill="#06593A"/>
    <path d="M547.25 130.817C547.25 144.976 543.231 155.207 535.649 161.966C528.067 168.726 517.014 172.014 503.495 172.014C488.514 172.014 476.913 166.716 469.058 158.13C461.202 149.543 457 137.851 457 124.697H485.317C485.591 129.447 485.957 135.293 488.332 139.952C490.707 144.702 495.091 148.173 503.586 148.173C509.067 148.173 512.721 146.529 514.822 143.606C517.014 140.774 517.836 136.846 517.836 132.37C517.836 127.894 517.288 124.149 515.461 121.135C513.543 118.12 510.346 115.837 505.231 113.736L484.221 105.24C474.721 101.313 468.144 96.4712 464.034 90.1684C459.923 83.9568 458.096 76.2838 458.096 66.7838C458.096 55.1828 460.928 45.2261 467.87 38.1925C474.721 31.2502 485.5 27.1396 501.303 27.1396C517.745 27.1396 528.889 32.3463 535.923 40.8415C542.957 49.3367 545.788 61.2117 545.788 74.4568H517.471C517.197 67.9713 516.375 62.1251 514.091 57.8319C511.808 53.5386 507.88 50.9809 501.668 50.9809C495.457 50.9809 491.894 52.8992 489.793 55.7309C487.692 58.654 487.236 62.4905 487.236 66.4184C487.236 75.0049 490.067 80.0289 498.38 83.2261L519.389 91.7212C528.25 95.3751 535.284 99.7597 540.034 105.88C544.692 112.183 547.159 120.13 547.159 130.817H547.25Z" fill="#06593A"/>
    <path d="M374 70H409.5L429 90V136H374V70Z" fill="#06593A"/>
    <path d="M0 0H157L222 70L259.5 31H336L374 70H338L148 261V181L204 125L186 106.5H105.5L0 0Z" fill="#06593A"/>
    <path d="M396 95H385V105H396V95Z" stroke="#063423"/>
    <path d="M407 95H396V105H407V95Z" stroke="#063423"/>
    <path d="M418 95H407V105H418V95Z" stroke="#063423"/>
    <path d="M396 105H385V115H396V105Z" stroke="#063423"/>
    <path d="M396 115H385V125H396V115Z" stroke="#063423"/>
    <path d="M407 105H396V115H407V105Z" stroke="#063423"/>
    <path d="M407 115H396V125H407V115Z" stroke="#063423"/>
    <path d="M418 105H407V115H418V105Z" stroke="#063423"/>
    <path d="M418 115H407V125H418V115Z" stroke="#063423"/>
    <path d="M396 95H385V105H396V95Z" fill="#EF8512" stroke="#063423"/>
    <path d="M407 95H396V105H407V95Z" fill="#EF8512" stroke="#063423"/>
    <path d="M407 105H396V115H407V105Z" fill="#EF8512" stroke="#063423"/>
    <path d="M407 115H396V125H407V115Z" fill="#EF8512" stroke="#063423"/>
    <path d="M259.369 31H336L374 70H338L148 261L259.369 31Z" fill="#EF8512"/>
    <path d="M314 46H303V57H314V46Z" fill="#06593A"/>
  </g>
  <defs>
    <clipPath id="clip0_1838_1471">
      <rect width="1341" height="261" fill="white"/>
    </clipPath>
  </defs>
</svg>
